<svg xmlns="http://www.w3.org/2000/svg" viewBox="0 0 128 128"><defs><style>.cls-1{fill:#89de3a;}.cls-2{fill:#79c433;}.cls-3{fill:#73ba30;}.cls-4{fill:#f4511e;}.cls-5{fill:#ffc400;}.cls-6{fill:#f5f5f5;}.cls-7{fill:#212121;}</style></defs><title>Fire-Flower</title><g id="Fire-Flower"><g id="fire-flower-2" data-name="fire-flower"><path class="cls-1" d="M69.5,113.56S74.25,91.71,89,85.34s33.9,5.15,33.9,5.15Z"/><path class="cls-2" d="M122.88,90.49s-4.74,21.84-19.48,28.21-33.9-5.15-33.9-5.15Z"/><path class="cls-1" d="M58.5,113.56S53.75,91.71,39,85.34s-33.9,5.15-33.9,5.15Z"/><path class="cls-2" d="M5.12,90.49S9.86,112.33,24.6,118.7s33.9-5.15,33.9-5.15Z"/><path class="cls-3" d="M64,77.24H57.51v46.41A2.36,2.36,0,0,0,59.87,126h8.26a2.36,2.36,0,0,0,2.36-2.36V77.24Z"/><ellipse class="cls-4" cx="64" cy="43.8" rx="54.37" ry="41.8"/><ellipse class="cls-5" cx="64" cy="43.8" rx="43.48" ry="33.43"/><ellipse class="cls-6" cx="64" cy="43.8" rx="30.99" ry="23.83"/><rect class="cls-7" x="47.16" y="34.79" width="8.65" height="18.04" rx="3.61" ry="3.61"/><rect class="cls-7" x="72.19" y="34.79" width="8.65" height="18.04" rx="3.61" ry="3.61"/></g></g></svg>