<svg id="Kirby" xmlns="http://www.w3.org/2000/svg" viewBox="0 0 128 128"><defs><style>.cls-1{fill:#dc003d;}.cls-2{fill:#ff7ab1;}.cls-3{fill:#ff8fbd;}.cls-4{fill:#1e88e5;}.cls-5{fill:#212121;}.cls-6{fill:#fff;}.cls-7{fill:#660913;}.cls-8{fill:#f31b28;}.cls-9{fill:#ff6ba8;}</style></defs><title>Kirby</title><g id="kirby-2" data-name="kirby"><path class="cls-1" d="M49.1,86.15C65.73,103.41,52,111.53,38,117.72,24.32,123.72,9.41,124,4,115.79s.34-21.46,12.79-29.65S42.3,79.09,49.1,86.15Z"/><path class="cls-1" d="M72.79,86.15c-16.63,17.26-2.9,25.38,11.15,31.57,13.63,6,28.55,6.26,33.93-1.93s-.34-21.46-12.79-29.65S79.59,79.09,72.79,86.15Z"/><rect class="cls-2" x="6.91" y="5.87" width="29.84" height="52.03" rx="14.92" ry="14.92" transform="translate(-11.19 11.82) rotate(-24.33)"/><rect class="cls-2" x="87.48" y="35.31" width="29.84" height="52.03" rx="14.92" ry="14.92" transform="translate(214.14 19.38) rotate(128.51)"/><circle class="cls-3" cx="60.95" cy="56.74" r="49.89"/><path class="cls-3" d="M60.95,107.57a50.83,50.83,0,1,1,50.83-50.83A50.89,50.89,0,0,1,60.95,107.57Zm0-99.78a49,49,0,1,0,49,49A49,49,0,0,0,60.95,7.78Z"/><path class="cls-4" d="M55.4,41.18c0,8.2-1.19,12.52-5.54,12.52s-5.54-4.32-5.54-12.52,2.48-11.09,5.54-11.09S55.4,33,55.4,41.18Z"/><path class="cls-5" d="M55.4,37.07c0,8.2-2.48,10.19-5.54,10.19s-5.54-2-5.54-10.19,2.48-13.41,5.54-13.41S55.4,28.87,55.4,37.07Z"/><path class="cls-6" d="M52.54,31.41c0,2.35,0,5.21-2.68,5.21s-2.68-2.85-2.68-5.21,1.2-4.26,2.68-4.26S52.54,29.05,52.54,31.41Z"/><path class="cls-4" d="M77.58,41.18c0,8.2-1.19,12.52-5.54,12.52s-5.54-4.32-5.54-12.52S69,30.09,72,30.09,77.58,33,77.58,41.18Z"/><path class="cls-5" d="M77.58,37.07c0,8.2-2.48,10.19-5.54,10.19s-5.54-2-5.54-10.19S69,23.65,72,23.65,77.58,28.87,77.58,37.07Z"/><path class="cls-6" d="M74.72,31.41c0,2.35,0,5.21-2.68,5.21s-2.68-2.85-2.68-5.21,1.2-4.26,2.68-4.26S74.72,29.05,74.72,31.41Z"/><path class="cls-7" d="M60.81,59.89h.26c4.75,0,6.93,1.12,7.72,2.6,1-2.83.39-6.06-7.72-6.07h-.26c-8.12,0-8.74,3.24-7.72,6.07C53.88,61,56.07,59.9,60.81,59.89Z"/><path class="cls-8" d="M58.8,68.73a5,5,0,0,0,4.29,0,10.58,10.58,0,0,0,3.12-2.06A14.54,14.54,0,0,0,68.8,62.5c-.79-1.48-3-2.59-7.72-2.6h-.26c-4.75,0-6.93,1.12-7.72,2.6a14.54,14.54,0,0,0,2.59,4.18A10.58,10.58,0,0,0,58.8,68.73Z"/><ellipse class="cls-9" cx="89.38" cy="51.77" rx="7.15" ry="3.93" transform="translate(-10.75 26.39) rotate(-15.86)"/><ellipse class="cls-9" cx="32.51" cy="51.77" rx="3.93" ry="7.15" transform="translate(-26.17 68.9) rotate(-74.14)"/></g></svg>