<svg xmlns="http://www.w3.org/2000/svg" viewBox="0 0 128 128"><defs><style>.cls-1{fill:#424242;}.cls-2{fill:#2e2e2e;}.cls-10,.cls-3{fill:#212121;}.cls-4{fill:#9b9d9e;}.cls-5{fill:#0f0f0f;}.cls-6{fill:#6a7a8a;}.cls-7{fill:#979797;}.cls-8{fill:#00c6e4;}.cls-9{fill:#4b4b4b;}.cls-10{opacity:0.2;}</style></defs><title>New-Nintendo-2DS-XL</title><g id="New-Nintendo-2DS-XL"><g id="New-Nintendo_2DS_XL" data-name="New-Nintendo 2DS XL"><path class="cls-1" d="M13.84,64H114.16a10.9,10.9,0,0,1,10.9,10.9v41.71a9.39,9.39,0,0,1-9.39,9.39H13.84a10.9,10.9,0,0,1-10.9-10.9V74.9A10.9,10.9,0,0,1,13.84,64Z"/><rect class="cls-2" x="2.94" y="2" width="122.12" height="62" rx="9.39" ry="9.39"/><rect class="cls-3" x="29.95" y="71.56" width="68.11" height="49.32" rx="0.38" ry="0.38"/><circle class="cls-3" cx="17.03" cy="79.78" r="8.27"/><circle class="cls-4" cx="17.03" cy="79.78" r="5.26"/><path class="cls-1" d="M19.85,64a3.38,3.38,0,0,1,3.38-3.38h81.54A3.38,3.38,0,0,1,108.15,64Z"/><path class="cls-2" d="M108.15,64h0a3.38,3.38,0,0,1-3.38,3.38H23.23A3.38,3.38,0,0,1,19.85,64h88.3Z"/><circle class="cls-5" cx="64" cy="64" r="2.38"/><circle class="cls-6" cx="64" cy="64" r="1.19"/><circle class="cls-7" cx="105.68" cy="76.02" r="2.07"/><circle class="cls-8" cx="112.22" cy="83.54" r="2.63"/><circle class="cls-8" cx="112.22" cy="96.69" r="2.63"/><circle class="cls-8" cx="118.99" cy="90.49" r="2.63"/><circle class="cls-8" cx="105.83" cy="90.49" r="2.63"/><rect class="cls-8" x="14.46" y="94.03" width="4.77" height="13.53"/><rect class="cls-8" x="14.46" y="94.03" width="4.77" height="13.53" transform="translate(-83.95 117.63) rotate(-90)"/><circle class="cls-3" cx="22.48" cy="117.42" r="2.63"/><circle class="cls-3" cx="105.68" cy="109.53" r="2.07"/><circle class="cls-3" cx="105.68" cy="117.42" r="2.07"/><rect class="cls-9" x="21.73" y="7.54" width="84.55" height="48.04"/><polygon class="cls-10" points="21.73 55.58 106.27 55.58 106.27 7.54 21.73 55.58"/><rect class="cls-5" x="71.45" y="62.21" width="1.79" height="3.58" rx="0.89" ry="0.89"/><path class="cls-1" d="M56.55,64v.89a.89.89,0,0,1-.89.89h0a.89.89,0,0,1-.89-.89V64Z"/><path class="cls-2" d="M54.76,64v-.89a.89.89,0,0,1,.89-.89h0a.89.89,0,0,1,.89.89V64Z"/></g></g></svg>