<svg xmlns="http://www.w3.org/2000/svg" viewBox="0 0 128 128"><defs><style>.cls-1{fill:#e0e0e0;}.cls-2{fill:#141414;}.cls-3{fill:#6a7a8a;}.cls-4{fill:#d1d0cf;}.cls-5{fill:#ebeae8;}.cls-6{fill:#c2c1c1;}.cls-7{fill:#4b4b4b;}.cls-8{fill:#212121;opacity:0.2;}.cls-9{fill:#84868f;}.cls-10{fill:#cacaca;}.cls-11{fill:#333;}.cls-12{fill:#f0eeed;}.cls-13{fill:#e8e6e6;}.cls-14{fill:#cfcfcf;}.cls-15{fill:#595a5c;}.cls-16{fill:#bab9b9;}.cls-17{fill:#9b9d9e;}.cls-18{fill:#1e88e5;}.cls-19{fill:#ffd61d;}.cls-20{fill:#f4511e;}.cls-21{fill:#66bb6a;}.cls-22{fill:#00e5ff;}.cls-23{fill:#736f78;}.cls-24{fill:#fffb00;}.cls-25{fill:#bdbdbd;}</style></defs><title>New-Nintendo-3DS</title><g id="New-Nintendo-3DS"><g id="New-Nintendo-3DS-2" data-name="New-Nintendo-3DS"><rect class="cls-1" x="4.79" y="2" width="118.41" height="124" rx="6.98" ry="6.98"/><circle class="cls-2" cx="64" cy="6.12" r="2.09"/><circle class="cls-3" cx="64" cy="6.12" r="0.91"/><circle class="cls-2" cx="68.75" cy="6.12" r="1.12"/><circle class="cls-4" cx="39.42" cy="6.26" r="2.65"/><circle class="cls-5" cx="39.42" cy="6.26" r="1.82"/><circle class="cls-4" cx="88.58" cy="6.26" r="2.65"/><circle class="cls-5" cx="88.58" cy="6.26" r="1.82"/><rect class="cls-6" x="26.37" y="11.2" width="75.27" height="47.06" rx="1.68" ry="1.68"/><rect class="cls-7" x="28.04" y="12.87" width="71.91" height="43.71"/><polygon class="cls-8" points="99.96 56.58 28.04 56.58 99.96 12.87 99.96 56.58"/><circle class="cls-9" cx="11.95" cy="26.62" r="0.69"/><circle class="cls-9" cx="15.03" cy="26.62" r="0.69"/><circle class="cls-9" cx="18.1" cy="26.62" r="0.69"/><circle class="cls-9" cx="15.03" cy="23.54" r="0.69"/><circle class="cls-9" cx="15.03" cy="29.7" r="0.69"/><circle class="cls-9" cx="109.9" cy="26.62" r="0.69"/><circle class="cls-9" cx="112.97" cy="26.62" r="0.69"/><circle class="cls-9" cx="116.05" cy="26.62" r="0.69"/><circle class="cls-9" cx="112.97" cy="23.54" r="0.69"/><circle class="cls-9" cx="112.97" cy="29.7" r="0.69"/><path class="cls-10" d="M34.12,67.42H93.88a2.79,2.79,0,0,1,2.79,2.79v50.73A5.05,5.05,0,0,1,91.62,126H36.38a5.05,5.05,0,0,1-5.05-5.05V70.21A2.79,2.79,0,0,1,34.12,67.42Z"/><rect class="cls-11" x="35.02" y="72.2" width="57.95" height="43.85"/><rect class="cls-8" x="4.79" y="65.42" width="118.41" height="5.59"/><path class="cls-12" d="M4.79,62.67A2.65,2.65,0,0,1,7.45,60H120.55a2.65,2.65,0,0,1,2.65,2.65Z"/><rect class="cls-13" x="4.79" y="62.67" width="118.41" height="2.09"/><path class="cls-14" d="M123.21,64.77a2.65,2.65,0,0,1-2.65,2.65H7.45a2.65,2.65,0,0,1-2.65-2.65Z"/><rect class="cls-15" x="115.95" y="62.68" width="1.95" height="1.9" rx="0.95" ry="0.95"/><rect class="cls-16" x="110.82" y="60.02" width="0.7" height="7.4"/><rect class="cls-16" x="16.48" y="60.02" width="0.7" height="7.4"/><circle class="cls-10" cx="18.48" cy="82.5" r="8.52"/><circle class="cls-17" cx="18.54" cy="82.5" r="5.58"/><rect class="cls-17" x="15.89" y="96.11" width="5.17" height="14.67" rx="0.54" ry="0.54"/><rect class="cls-17" x="15.89" y="96.11" width="5.18" height="14.66" rx="0.54" ry="0.54" transform="translate(-84.97 121.92) rotate(-90)"/><path class="cls-1" d="M62.78,124.09a3,3,0,0,1,0-6.09h2.43a3,3,0,0,1,0,6.09Z"/><rect class="cls-17" x="60.65" y="118.91" width="6.69" height="4.26" rx="2.13" ry="2.13"/><circle class="cls-18" cx="109.76" cy="83.28" r="2.79"/><circle class="cls-19" cx="109.76" cy="95.68" r="2.79"/><circle class="cls-20" cx="116.14" cy="89.84" r="2.79"/><circle class="cls-21" cx="103.74" cy="89.84" r="2.79"/><circle class="cls-17" cx="101.98" cy="109.47" r="1.75"/><circle class="cls-17" cx="101.98" cy="116.13" r="1.75"/><circle class="cls-17" cx="102.4" cy="75.52" r="2.65"/><rect class="cls-22" x="96.9" y="123.98" width="1.4" height="2.02"/><rect class="cls-23" x="103.61" y="123.98" width="1.4" height="2.02"/><rect class="cls-24" x="110.31" y="123.98" width="1.4" height="2.02"/><rect class="cls-25" x="121.53" y="34.72" width="1.68" height="13.7"/><rect class="cls-4" x="121.53" y="34.72" width="1.68" height="4.91"/><rect class="cls-25" x="4.79" y="34.72" width="1.68" height="13.7"/><rect class="cls-4" x="4.79" y="34.72" width="1.68" height="4.91"/></g></g></svg>