<svg xmlns="http://www.w3.org/2000/svg" viewBox="0 0 128 128"><defs><style>.cls-1,.cls-5{fill:#212121;}.cls-2{fill:#9b9d9e;}.cls-3{fill:#404040;}.cls-4{fill:#e0e0e0;}.cls-5{opacity:0.1;}.cls-6{fill:#141414;}.cls-7{fill:#6a7a8a;}.cls-8{fill:#7d7f80;}.cls-9{fill:#777;}.cls-10{fill:#ff1744;}.cls-11{fill:#00c6e4;}.cls-12{fill:#424242;}.cls-13{fill:#666;}</style></defs><title>New-Nintendo-2DS</title><g id="New-Nintendo-2DS"><g id="New-Nintendo_2DS" data-name="New-Nintendo 2DS"><path class="cls-1" d="M105.71,6.85H22.29A20.3,20.3,0,0,0,2,27.15v86.49a7.51,7.51,0,0,0,7.51,7.51h109a7.51,7.51,0,0,0,7.51-7.51V27.15A20.3,20.3,0,0,0,105.71,6.85Z"/><circle class="cls-1" cx="14.79" cy="47.03" r="9.13"/><circle class="cls-2" cx="14.85" cy="47.03" r="5.99"/><rect class="cls-3" x="12.24" y="61.42" width="5.09" height="14.41" rx="0.53" ry="0.53"/><rect class="cls-3" x="12.24" y="61.43" width="5.09" height="14.41" rx="0.53" ry="0.53" transform="translate(-53.85 83.42) rotate(-90)"/><rect class="cls-3" x="28.28" y="18.1" width="72.05" height="44.87" rx="1.42" ry="1.42"/><rect class="cls-3" x="29.91" y="19.73" width="68.8" height="41.62"/><rect class="cls-4" x="30.72" y="20.54" width="67.18" height="39.99"/><polygon class="cls-5" points="97.89 60.53 53.27 60.53 73.2 20.38 97.89 20.54 97.89 60.53"/><circle class="cls-3" cx="113.42" cy="40.04" r="2.85"/><circle class="cls-3" cx="113.42" cy="54.03" r="2.85"/><circle class="cls-3" cx="120.61" cy="47.43" r="2.85"/><circle class="cls-3" cx="106.63" cy="47.43" r="2.85"/><circle class="cls-6" cx="64.3" cy="12.52" r="2.33"/><circle class="cls-7" cx="64.3" cy="12.52" r="1.01"/><circle class="cls-3" cx="107.13" cy="72.4" r="2.13"/><circle class="cls-3" cx="107.13" cy="80.54" r="2.13"/><rect class="cls-8" x="111.79" y="21.86" width="3.65" height="2.03" rx="1.01" ry="1.01"/><circle class="cls-1" cx="12.35" cy="22.98" r="0.71"/><circle class="cls-1" cx="14.68" cy="22.98" r="0.71"/><circle class="cls-1" cx="17.02" cy="22.98" r="0.71"/><circle class="cls-1" cx="12.35" cy="20.64" r="0.71"/><circle class="cls-1" cx="14.68" cy="20.64" r="0.71"/><circle class="cls-1" cx="17.02" cy="20.64" r="0.71"/><circle class="cls-1" cx="12.35" cy="25.31" r="0.71"/><circle class="cls-1" cx="14.68" cy="25.31" r="0.71"/><circle class="cls-1" cx="17.02" cy="25.31" r="0.71"/><rect class="cls-3" x="36.5" y="65.71" width="55.61" height="42.23"/><rect class="cls-3" x="37.31" y="66.52" width="53.98" height="40.6"/><rect class="cls-9" x="38.12" y="67.34" width="52.36" height="38.98"/><circle class="cls-10" cx="113.62" cy="97.79" r="0.61"/><circle class="cls-11" cx="113.62" cy="104.89" r="0.61"/><circle class="cls-1" cx="107.13" cy="104.89" r="3.55"/><circle class="cls-3" cx="107.13" cy="104.89" r="2.44"/><path class="cls-1" d="M108.44,105v-.38h0l0,0h0a1.4,1.4,0,0,0-.58-.67.23.23,0,0,0-.33.28h0v0h0v0h.08l.05,0h0l0,0h0l0,0h0a.87.87,0,0,1,.19.26h0a.87.87,0,0,1,.08.35s0,0,0,.07h0s0,0,0,.07h0v.07h0l0,.07a.87.87,0,0,1-.81.59h-.2l-.06,0h-.13l0,0,0,0h0l0,0h0l-.1-.09h0l0,0h0l0,0a.85.85,0,0,1,.25-1.25l0,0h.08v0h0s0,0,0,0h0v0h0v0h0v0h0v0h0v0h0v0h0a.21.21,0,0,0-.31-.08,1.34,1.34,0,0,0-.58,1.55l0,.08h0l0,0h0l0,0h0l0,0h0l0,0h0l0,0h0a1.3,1.3,0,0,0,.37.37h0l0,0h0l0,0h0l0,0h.63a1.33,1.33,0,0,0,1.25-.93l0-.06V105s0,0,0,0Z"/><path class="cls-1" d="M106.91,104.83h0l0,.05h0l0,0h.13a.23.23,0,0,0,.23-.24v-1h0v0h0v0h0v0h0a.23.23,0,0,0-.44.11v1A.23.23,0,0,0,106.91,104.83Z"/><path class="cls-1" d="M62.68,118.34a4.06,4.06,0,0,1,0-8.12h3.25a4.06,4.06,0,0,1,0,8.12Z"/><rect class="cls-12" x="59.84" y="111.43" width="8.93" height="5.68" rx="2.84" ry="2.84"/><circle class="cls-13" cx="20.06" cy="102.46" r="0.81"/></g></g></svg>