<svg xmlns="http://www.w3.org/2000/svg" viewBox="0 0 128 128"><defs><style>.cls-1{fill:#424242;}.cls-2{fill:#141414;}.cls-3{fill:#6a7a8a;}.cls-10,.cls-4,.cls-7{fill:#212121;}.cls-5{fill:#2e2e2e;}.cls-6{fill:#e0e0e0;}.cls-7{opacity:0.1;}.cls-8{fill:#252525;}.cls-9{fill:#9e9e9e;}.cls-10{opacity:0.4;}.cls-11{fill:#646464;}.cls-12{fill:#4b4b4b;}.cls-13{fill:#373737;}.cls-14{fill:#6f7073;}.cls-15{fill:#9b9d9e;}.cls-16{fill:#f2562b;}.cls-17{fill:#8a8b8c;}.cls-18{fill:#00c6e4;}.cls-19{fill:#f2df72;}.cls-20{fill:#5e5e5e;}</style></defs><title>New-Nintendo-3DS-XL</title><g id="New-Nintendo-3DS-XL"><g id="new-nintendo-3DS-XL-2" data-name="new-nintendo-3DS-XL"><rect class="cls-1" x="6.56" y="2" width="114.88" height="124" rx="11.59" ry="11.59"/><circle class="cls-2" cx="64" cy="5.45" r="2.05"/><circle class="cls-3" cx="64" cy="5.45" r="0.89"/><circle class="cls-2" cx="68.44" cy="5.45" r="1.09"/><circle class="cls-4" cx="11.84" cy="30.14" r="0.68"/><circle class="cls-4" cx="14.85" cy="30.14" r="0.68"/><circle class="cls-4" cx="17.86" cy="30.14" r="0.68"/><circle class="cls-4" cx="14.85" cy="27.13" r="0.68"/><circle class="cls-4" cx="14.85" cy="33.15" r="0.68"/><circle class="cls-4" cx="110.14" cy="30.14" r="0.68"/><circle class="cls-4" cx="113.15" cy="30.14" r="0.68"/><circle class="cls-4" cx="116.16" cy="30.14" r="0.68"/><circle class="cls-4" cx="113.15" cy="27.13" r="0.68"/><circle class="cls-4" cx="113.15" cy="33.15" r="0.68"/><circle class="cls-1" cx="36.62" cy="5.7" r="1.85"/><circle class="cls-5" cx="36.62" cy="5.7" r="1.27"/><circle class="cls-1" cx="91.38" cy="5.7" r="1.85"/><circle class="cls-5" cx="91.38" cy="5.7" r="1.27"/><path class="cls-4" d="M23.2,58.79V10.47a1.24,1.24,0,0,1,1.26-1.23h79.09a1.24,1.24,0,0,1,1.26,1.23V58.79A1.24,1.24,0,0,1,103.54,60H24.46A1.24,1.24,0,0,1,23.2,58.79Z"/><rect class="cls-6" x="24.46" y="10.47" width="79.09" height="48.32"/><polygon class="cls-7" points="103.54 58.78 24.46 58.78 103.54 10.47 103.54 58.78"/><circle class="cls-1" cx="113.15" cy="9.64" r="1.23"/><circle class="cls-1" cx="14.85" cy="9.64" r="1.23"/><circle class="cls-1" cx="113.15" cy="56.73" r="1.23"/><circle class="cls-1" cx="14.85" cy="56.73" r="1.23"/><path class="cls-8" d="M29.49,68h69a0,0,0,0,1,0,0v51.89A6.16,6.16,0,0,1,92.35,126H35.65a6.16,6.16,0,0,1-6.16-6.16V68a0,0,0,0,1,0,0Z"/><rect class="cls-9" x="32.32" y="71.14" width="63.36" height="47.09"/><rect class="cls-10" x="6.56" y="63.46" width="114.88" height="11"/><path class="cls-11" d="M6.56,63.35a2.57,2.57,0,0,1,2.57-2.57H118.87a2.57,2.57,0,0,1,2.57,2.57Z"/><rect class="cls-12" x="6.56" y="63.35" width="114.88" height="2.03"/><path class="cls-13" d="M121.44,65.38A2.57,2.57,0,0,1,118.87,68H9.13a2.57,2.57,0,0,1-2.57-2.57"/><rect class="cls-14" x="114.39" y="63.35" width="1.9" height="1.85" rx="0.92" ry="0.92"/><rect class="cls-5" x="109.43" y="60.77" width="0.68" height="7.18"/><rect class="cls-5" x="17.9" y="60.77" width="0.68" height="7.18"/><circle class="cls-4" cx="18.64" cy="80.64" r="7.64"/><circle class="cls-15" cx="18.7" cy="80.64" r="5.01"/><rect class="cls-16" x="16.33" y="91.83" width="4.61" height="13.07" rx="0.48" ry="0.48"/><rect class="cls-16" x="16.33" y="91.84" width="4.61" height="13.07" rx="0.48" ry="0.48" transform="translate(-79.73 117.01) rotate(-90)"/><circle class="cls-17" cx="103.2" cy="73.98" r="1.97"/><circle class="cls-16" cx="109.43" cy="80.52" r="2.72"/><circle class="cls-16" cx="109.43" cy="92.59" r="2.72"/><circle class="cls-16" cx="115.64" cy="86.9" r="2.72"/><circle class="cls-16" cx="103.57" cy="86.9" r="2.72"/><circle class="cls-4" cx="103.2" cy="105.86" r="1.71"/><circle class="cls-4" cx="103.2" cy="112.38" r="1.71"/><rect class="cls-18" x="97.51" y="124.18" width="1.26" height="1.82"/><rect class="cls-8" x="103.04" y="124.18" width="1.26" height="1.82"/><rect class="cls-19" x="108.58" y="124.18" width="1.26" height="1.82"/><path class="cls-12" d="M62.94,124.64a2.36,2.36,0,1,1,0-4.68h2.11a2.36,2.36,0,1,1,0,4.68Z"/><rect class="cls-4" x="61.09" y="120.66" width="5.81" height="3.28" rx="1.62" ry="1.62"/><rect class="cls-20" x="90.62" y="125.09" width="1.29" height="0.85"/><rect class="cls-16" x="119.81" y="35.6" width="1.63" height="13.3"/><rect class="cls-15" x="119.81" y="35.6" width="1.63" height="4.76"/><rect class="cls-16" x="6.56" y="35.6" width="1.63" height="13.3"/><rect class="cls-15" x="6.56" y="35.6" width="1.63" height="4.76"/></g></g></svg>