<svg xmlns="http://www.w3.org/2000/svg" viewBox="0 0 128 128"><defs><style>.cls-1{fill:#e0e0e0;}.cls-2{fill:#424242;}.cls-3{fill:#7cb342;}.cls-4{fill:#263238;}.cls-5{fill:#d81b60;}.cls-6{fill:#cacaca;}.cls-7{fill:#bdbdbd;}.cls-8{fill:#251116;}.cls-9{fill:#212121;opacity:0.1;}</style></defs><title>Nintendo-Gameboy</title><g id="Nintendo-Gameboy"><g id="gameboy"><path class="cls-1" d="M28.17,2H99.83A2.14,2.14,0,0,1,102,4.14V110.48A15.52,15.52,0,0,1,86.45,126H28.17A2.14,2.14,0,0,1,26,123.86V4.14A2.14,2.14,0,0,1,28.17,2Z"/><path class="cls-2" d="M33,8.54H95a0,0,0,0,1,0,0v39.9a9.16,9.16,0,0,1-9.16,9.16H33a0,0,0,0,1,0,0V8.54A0,0,0,0,1,33,8.54Z"/><rect class="cls-3" x="43.69" y="14.22" width="40.62" height="37.69"/><rect class="cls-4" x="36.9" y="75.54" width="6.26" height="17.74"/><rect class="cls-4" x="36.9" y="75.54" width="6.26" height="17.74" transform="translate(-44.39 124.44) rotate(-90)"/><circle class="cls-5" cx="90.4" cy="81.5" r="4.6"/><circle class="cls-5" cx="77.76" cy="87.32" r="4.6"/><rect class="cls-6" x="89.94" y="105.7" width="3.5" height="7.72" transform="translate(-42.22 59.78) rotate(-29.68)"/><rect class="cls-6" x="84.7" y="108.68" width="3.5" height="7.72" transform="translate(-44.44 57.71) rotate(-29.74)"/><rect class="cls-6" x="79.46" y="111.67" width="3.5" height="7.72" transform="translate(-46.56 55.38) rotate(-29.68)"/><rect class="cls-7" x="60.95" y="102.7" width="10.01" height="2.91" rx="1.34" ry="1.34" transform="translate(-39.15 39.73) rotate(-26.15)"/><rect class="cls-7" x="48.01" y="102.7" width="10.01" height="2.91" rx="1.34" ry="1.34" transform="translate(-40.48 34.03) rotate(-26.15)"/><circle class="cls-8" cx="38.34" cy="24.24" r="1.11"/><path class="cls-9" d="M85.84,57.6H33L95,8.54v39.9A9.16,9.16,0,0,1,85.84,57.6Z"/></g></g></svg>