<svg xmlns="http://www.w3.org/2000/svg" viewBox="0 0 128 128"><defs><style>.cls-1{fill:#26292b;}.cls-2{fill:#323438;}.cls-3{fill:#00c6e4;}.cls-4{fill:#ff1744;}.cls-5{fill:#393d41;}.cls-6{fill:#212121;}.cls-7{fill:#64dd17;}</style></defs><title>Nintendo-Switch</title><g id="Nintendo-Switch"><g id="nintendo-switch-2" data-name="nintendo-switch"><path class="cls-1" d="M112.13,29.35S142,111.77,114,111.77c-8.91,0-16.15-7.44-15.22-14.07S112.13,29.35,112.13,29.35Z"/><path class="cls-1" d="M15.87,29.35S-14,111.77,14,111.77c8.91,0,16.15-7.44,15.22-14.07S15.87,29.35,15.87,29.35Z"/><path class="cls-2" d="M79.59,16.23H48.1a1.07,1.07,0,0,0-1,.82,2.81,2.81,0,0,1-2.52,2.14v92.57H83.22V19.71a2.85,2.85,0,0,1-2.64-2.56A1,1,0,0,0,79.59,16.23Z"/><path class="cls-3" d="M45,111.77s0-81,0-93.82a1.71,1.71,0,0,0-1.72-1.71H34.6A20.47,20.47,0,0,0,14.13,36.7V91.29A20.47,20.47,0,0,0,34.6,111.77Z"/><path class="cls-4" d="M82.6,18,83,111.77H93.4a20.47,20.47,0,0,0,20.47-20.47V36.7A20.47,20.47,0,0,0,93.4,16.23H84.32A1.71,1.71,0,0,0,82.6,18Z"/><rect class="cls-5" x="89.57" y="25.45" width="2.09" height="5.91"/><rect class="cls-5" x="89.57" y="25.45" width="2.09" height="5.91" transform="translate(62.2 119.02) rotate(-90)"/><rect class="cls-5" x="36.8" y="25.45" width="2.09" height="5.91" transform="translate(9.43 66.25) rotate(-90)"/><circle class="cls-5" cx="98.23" cy="53.54" r="3.41"/><circle class="cls-5" cx="98.23" cy="38.52" r="3.41"/><circle class="cls-5" cx="90.73" cy="46.03" r="3.41"/><circle class="cls-5" cx="105.74" cy="46.03" r="3.41"/><circle class="cls-5" cx="29.54" cy="81.74" r="3.41"/><circle class="cls-5" cx="29.54" cy="66.73" r="3.41"/><circle class="cls-5" cx="22.03" cy="74.24" r="3.41"/><circle class="cls-5" cx="37.05" cy="74.24" r="3.41"/><circle class="cls-5" cx="29.54" cy="46.03" r="7.51"/><circle class="cls-5" cx="98.23" cy="74.24" r="7.51"/><rect class="cls-5" x="34.89" y="95.04" width="5.91" height="5.91"/><circle class="cls-5" cx="90.61" cy="98" r="3.64"/><rect class="cls-6" x="75.91" y="67.47" width="2.57" height="2.57"/><rect class="cls-6" x="75.91" y="61.45" width="2.57" height="2.57"/><rect class="cls-6" x="75.91" y="55.43" width="2.57" height="2.57"/><rect class="cls-7" x="75.91" y="49.41" width="2.57" height="2.57"/><rect class="cls-6" x="49.52" y="67.47" width="2.57" height="2.57"/><rect class="cls-6" x="49.52" y="61.45" width="2.57" height="2.57"/><rect class="cls-6" x="49.52" y="55.43" width="2.57" height="2.57"/><rect class="cls-7" x="49.52" y="49.41" width="2.57" height="2.57"/></g></g></svg>