<svg xmlns="http://www.w3.org/2000/svg" viewBox="0 0 128 128"><defs><style>.cls-1{fill:#ffd600;}.cls-2{fill:#212121;}.cls-3{fill:#ff4d35;}.cls-4{fill:#fff;}.cls-5{fill:#ffab00;}</style></defs><title>Pikachu</title><g id="Pikachu"><path class="cls-1" d="M112.38,36.3c-3.53,6.5-25.61,24.78-25.61,24.78s-19.1,1-17.43-3.14c7.95-19.45,26.5-36.08,39.53-45.82C108.87,12.11,118.73,24.6,112.38,36.3Z"/><path class="cls-2" d="M107.58,13,124.11,2.1a.52.52,0,0,1,.8.56c-1.5,5.47-5.45,24.69-11.29,32.14-.36.46-.78,1-1.25,1.5C112.38,36.3,111.22,16.58,107.58,13Z"/><path class="cls-1" d="M15.62,36.3c3.53,6.5,25.61,24.78,25.61,24.78s19.1,1,17.43-3.14c-7.95-19.45-26.5-36.08-39.53-45.82C19.13,12.11,9.27,24.6,15.62,36.3Z"/><path class="cls-2" d="M20.42,13,3.89,2.1a.52.52,0,0,0-.8.56C4.59,8.13,8.54,27.35,14.38,34.8c.36.46.78,1,1.25,1.5C15.62,36.3,16.78,16.58,20.42,13Z"/><path class="cls-1" d="M86,125.48,44.55,126C29.34,126,17,110.71,17,95.51V79.91A46.76,46.76,0,0,1,63.77,33.15h3a46.76,46.76,0,0,1,46.76,46.76V95.51C113.55,110.71,101.22,125.48,86,125.48Z"/><ellipse class="cls-3" cx="103.87" cy="99.11" rx="12.42" ry="8.34" transform="translate(-17.66 175.55) rotate(-75.83)"/><ellipse class="cls-3" cx="26.7" cy="99.11" rx="8.34" ry="12.42" transform="translate(-23.46 9.55) rotate(-14.17)"/><circle class="cls-2" cx="38.67" cy="77.12" r="7.83"/><circle class="cls-4" cx="41.28" cy="74.77" r="2.87"/><circle class="cls-2" cx="91.89" cy="77.12" r="7.83"/><circle class="cls-4" cx="89.29" cy="74.77" r="2.87"/><path class="cls-2" d="M64.84,89.88,62.6,87.64A.63.63,0,0,1,63,86.57h4.49A.63.63,0,0,1,68,87.64l-2.24,2.24A.63.63,0,0,1,64.84,89.88Z"/><path class="cls-5" d="M74.17,101.65h-.43a8.13,8.13,0,0,1-4.68-2A6.86,6.86,0,0,0,65.27,98c-1.43,0-2.57.81-3.8,1.69s-2.8,2-4.72,2h-.38c-3.12,0-7,0-7-4.55h1.57c0,2.81,2,3,5.44,3h.42a6.77,6.77,0,0,0,3.77-1.69c1.37-1,2.79-2,4.68-2h0a8.13,8.13,0,0,1,4.68,2,6.85,6.85,0,0,0,3.79,1.69c2.17,0,4.3-.1,5.28-1.07a2.28,2.28,0,0,0,.61-1.71H81.2a3.81,3.81,0,0,1-1.07,2.82C78.77,101.48,76.38,101.65,74.17,101.65Z"/></g></svg>