<svg xmlns="http://www.w3.org/2000/svg" viewBox="0 0 128 128"><defs><style>.cls-1{fill:#f71717;}.cls-2{fill:#f0f0f0;}.cls-3{fill:#e0e0e0;}.cls-4{fill:#33363a;}</style></defs><title>Pokeball</title><g id="Pokeball"><g id="pokeball-2" data-name="pokeball"><path class="cls-1" d="M64,2A62,62,0,0,0,2.08,61H42.42a21.77,21.77,0,0,1,43.18,0h40.33A62,62,0,0,0,64,2Z"/><path class="cls-2" d="M125.86,67H85.54a21.76,21.76,0,0,1-43.07,0H2.08a62,62,0,0,0,123.84,0Z"/><path class="cls-3" d="M79.48,61a15.74,15.74,0,0,0-31,0A15.86,15.86,0,0,0,48.59,67a15.74,15.74,0,0,0,30.83,0,15.88,15.88,0,0,0,.32-3c0-.06,0-.12,0-.17A15.91,15.91,0,0,0,79.48,61ZM75.62,67a12,12,0,0,1-3.06,5.35,12.1,12.1,0,0,1-17.11,0A12,12,0,0,1,52.38,67a12.09,12.09,0,1,1,23.23,0Z"/><path class="cls-4" d="M125.92,61H85.59a21.77,21.77,0,0,0-43.18,0H2V67H42.47a21.77,21.77,0,0,0,43.07,0H126V61ZM79.42,67a15.74,15.74,0,0,1-30.83,0A15.86,15.86,0,0,1,48.52,61a15.74,15.74,0,0,1,31,0,15.91,15.91,0,0,1,.27,2.85c0,.06,0,.12,0,.17A15.88,15.88,0,0,1,79.42,67Z"/></g></g></svg>