<svg xmlns="http://www.w3.org/2000/svg" viewBox="0 0 128 128"><defs><style>.cls-1{fill:#ffd600;}.cls-2{fill:#212121;}</style></defs><title>Star</title><g id="Star"><path class="cls-1" d="M122.18,45.68l-34-5.2a4.5,4.5,0,0,1-3.27-2.29L67.95,7a4.5,4.5,0,0,0-7.9,0l-17,31.18a4.5,4.5,0,0,1-3.27,2.29l-34,5.2a4.5,4.5,0,0,0-2.67,7.44l23.5,26.28A4.5,4.5,0,0,1,27.76,83L23.4,118.29a4.5,4.5,0,0,0,6.37,4.62l32.32-15.1a4.5,4.5,0,0,1,3.81,0l32.32,15.1a4.5,4.5,0,0,0,6.37-4.62L100.24,83a4.5,4.5,0,0,1,1.11-3.55l23.5-26.28A4.5,4.5,0,0,0,122.18,45.68Z"/><rect class="cls-2" x="48.91" y="52.61" width="8.99" height="20.24" rx="3.46" ry="3.46"/><rect class="cls-2" x="70.1" y="52.61" width="8.99" height="20.24" rx="3.46" ry="3.46"/></g></svg>