<svg xmlns="http://www.w3.org/2000/svg" viewBox="0 0 128 128"><defs><style>.cls-1{fill:#ff1744;}.cls-2{fill:#ffaf66;}.cls-3{fill:#ff9a42;}.cls-4{fill:#ffb87a;}.cls-5{fill:#4f292e;}.cls-6{fill:#fff;}.cls-7{fill:#ff2a39;}.cls-8{fill:#342a33;}.cls-9{fill:#ff5252;}.cls-10{fill:#1e88e5;}.cls-11{fill:#0b3982;}.cls-12{fill:#ffd5a6;}</style></defs><title>Super-Mario</title><g id="Super-Mario"><g id="Super_Mario" data-name="Super Mario"><path class="cls-1" d="M116,46.19C116,38.1,99.35,2.11,64.08,2h-.15C28.65,2.11,12,38.1,12,46.19,12,70.55,34.81,90.3,63.92,90.37h.15C93.19,90.3,116,70.55,116,46.19Z"/><g id="ear"><path class="cls-2" d="M118.35,83.2c-2.62,9-9.6,15-15.59,13.38S94,86.28,96.65,77.24s9.6-15,15.59-13.38S121,74.16,118.35,83.2Z"/><circle class="cls-3" cx="105.71" cy="80.22" r="4.1"/></g><g id="ear-2" data-name="ear"><path class="cls-2" d="M9.65,83.2c2.62,9,9.6,15,15.59,13.38S34,86.28,31.35,77.24s-9.6-15-15.59-13.38S7,74.16,9.65,83.2Z"/><circle class="cls-3" cx="22.29" cy="80.22" r="4.1"/></g><ellipse class="cls-4" cx="63.46" cy="117.35" rx="17.42" ry="8.65"/><rect class="cls-4" x="32.8" y="53.34" width="62.41" height="26.88"/><ellipse class="cls-4" cx="64" cy="53.34" rx="30.75" ry="11.5"/><g id="hair"><rect class="cls-5" x="94.98" y="57.9" width="8.2" height="34.16"/><rect class="cls-5" x="24.83" y="57.9" width="8.2" height="34.16"/></g><circle class="cls-6" cx="64" cy="26.16" r="15.26"/><polygon class="cls-7" points="69.36 14.44 64 20.02 58.64 14.44 51.7 27.35 55.53 29.02 59.55 20.33 63.92 24.27 63.92 24.4 64 24.34 64.08 24.4 64.08 24.27 68.45 20.33 72.47 29.02 76.3 27.35 69.36 14.44"/><path class="cls-8" d="M92.47,61.58c0,5-3.52-4.37-10.19-4.37s-14,6.07-14,6.07c0-5,5.4-10.76,12.07-10.76S92.47,56.57,92.47,61.58Z"/><path class="cls-8" d="M35.53,61.58c0,5,3.52-4.37,10.19-4.37s14,6.07,14,6.07c0-5-5.4-10.76-12.07-10.76S35.53,56.57,35.53,61.58Z"/><path class="cls-9" d="M96,61.21a50.59,50.59,0,0,0-64,0c-2.12,1.72-5.12,2-6.86.31l-7-7c-1.74-1.67-.93-5.33,2.05-7.76a69.27,69.27,0,0,1,87.62,0c3,2.43,3.8,6.09,2.05,7.76l-7,7C101.11,63.2,98.11,62.94,96,61.21Z"/><path class="cls-4" d="M104.77,94.92c0,15.54-19,28.13-40.77,28.13s-40.77-12.6-40.77-28.13S38.61,66.78,64,66.78C88.46,66.78,104.77,79.38,104.77,94.92Z"/><g id="eye"><path class="cls-6" d="M41.91,63.28h7a6.11,6.11,0,0,1,6.11,6.11V74.1a5.64,5.64,0,0,1-5.64,5.64h0a7.52,7.52,0,0,1-7.52-7.52V63.28A0,0,0,0,1,41.91,63.28Z" transform="translate(96.97 143.02) rotate(-180)"/><path class="cls-10" d="M52.37,69.86c-2.77,0-3.07,3.12-3.07,4.47,0,2.42,1.41,4.47,3.07,4.47H53A8.48,8.48,0,0,1,50.5,79c-2.73,0-4.94-2.74-4.94-6.11s1.65-6.11,4.94-6.11A4.59,4.59,0,0,1,55,70.26c0,.18,0,.36,0,.54v1.11A2.74,2.74,0,0,0,52.37,69.86Z"/><path class="cls-11" d="M54.7,78.56a3.83,3.83,0,0,1-1.67.23h-.66c-1.66,0-3.07-2-3.07-4.47,0-1.34.3-4.47,3.07-4.47a2.74,2.74,0,0,1,2.7,2v5.9A1.72,1.72,0,0,1,54.7,78.56Z"/></g><g id="eye-2" data-name="eye"><path class="cls-6" d="M80.46,63.28h0a5.64,5.64,0,0,1,5.64,5.64v4.71A6.11,6.11,0,0,1,80,79.74h-7a0,0,0,0,1,0,0V70.8a7.52,7.52,0,0,1,7.52-7.52Z"/><path class="cls-10" d="M75.63,69.86c2.77,0,3.07,3.12,3.07,4.47,0,2.42-1.41,4.47-3.07,4.47H75A8.48,8.48,0,0,0,77.5,79c2.73,0,4.94-2.74,4.94-6.11s-1.65-6.11-4.94-6.11A4.59,4.59,0,0,0,73,70.26c0,.18,0,.36,0,.54v1.11A2.74,2.74,0,0,1,75.63,69.86Z"/><path class="cls-11" d="M73.3,78.56a3.83,3.83,0,0,0,1.67.23h.66c1.66,0,3.07-2,3.07-4.47,0-1.34-.3-4.47-3.07-4.47a2.74,2.74,0,0,0-2.7,2v5.9A1.72,1.72,0,0,0,73.3,78.56Z"/></g><path class="cls-8" d="M87.68,99.57c0,.49,0,1,0,1.43a6.23,6.23,0,0,1-3.58,6,8.89,8.89,0,0,1-5.35.86,8.35,8.35,0,0,1-4-1.64l-.21-.14c-.07.11-.14.2-.19.3a10.34,10.34,0,0,1-6.52,5.4,14.89,14.89,0,0,1-5.76.35,10.86,10.86,0,0,1-3.74-1.06,10.43,10.43,0,0,1-4.64-4.6l-.15-.27a.54.54,0,0,0-.08-.09,17.87,17.87,0,0,1-1.79,1,8.62,8.62,0,0,1-8.63-.68,5.94,5.94,0,0,1-2.72-5.24c0-.54,0-1.08,0-1.66-.51-.14-1-.24-1.54-.43a5.12,5.12,0,0,1-3.56-3.91,6.49,6.49,0,0,1,1.16-5.63,10.69,10.69,0,0,1,4-3,12,12,0,0,1,2.19-.72c.51-.11.7.13.67.66s-.19,1-.2,1.56a4.58,4.58,0,0,0,2.16,4,8.88,8.88,0,0,0,5,1.39c2.14,0,4.29.06,6.42.26a15.49,15.49,0,0,1,6.43,1.82,1.61,1.61,0,0,0,1.9,0,16,16,0,0,1,5.68-1.72,80.71,80.71,0,0,1,8.13-.42A6.65,6.65,0,0,0,84,90.93a4,4,0,0,0,.78-3.69,2.26,2.26,0,0,1-.06-.43c-.08-1,.38-1.1,1.13-.87a11.71,11.71,0,0,1,5.82,3.77,6.49,6.49,0,0,1,1.23,4.68,5.51,5.51,0,0,1-4.8,5.05A4.33,4.33,0,0,0,87.68,99.57Z"/><ellipse id="nose" class="cls-12" cx="64" cy="88.65" rx="17.99" ry="15.03"/></g></g></svg>